<?xml version="1.0" standalone="no"?>
<!DOCTYPE svg PUBLIC "-//W3C//DTD SVG 20010904//EN"
 "http://www.w3.org/TR/2001/REC-SVG-20010904/DTD/svg10.dtd">
<svg version="1.0" xmlns="http://www.w3.org/2000/svg"
 width="704.000000pt" height="704.000000pt" viewBox="0 0 704.000000 704.000000"
 preserveAspectRatio="xMidYMid meet">
<metadata>
Created by potrace 1.11, written by Peter Selinger 2001-2013
</metadata>
<g transform="translate(0.000000,704.000000) scale(0.100000,-0.100000)"
fill="#000000" stroke="none">
<path d="M0 3520 l0 -3520 1786 0 1785 0 -7 23 c-4 12 -8 45 -9 72 -1 28 -5
64 -9 80 -3 17 -8 50 -11 75 -2 25 -9 92 -15 150 -6 58 -13 132 -16 165 -2 33
-7 80 -9 105 -3 25 -7 114 -11 198 -5 135 -4 152 10 152 9 0 16 -6 16 -14 0
-9 8 -12 25 -8 14 2 31 0 38 -6 6 -5 23 -12 37 -14 20 -2 28 4 42 32 10 19 29
45 44 58 19 17 23 26 15 36 -6 7 -8 16 -4 19 3 4 5 42 4 85 -1 43 3 91 9 107
36 95 23 252 -22 267 -7 3 -8 10 -3 17 8 15 72 10 159 -11 79 -20 92 -55 120
-328 9 -80 28 -197 42 -260 32 -136 36 -280 10 -400 -9 -41 -16 -114 -16 -162
0 -67 -10 -128 -40 -259 -22 -95 -40 -174 -40 -175 0 -2 700 -4 1555 -4 l1555
0 0 3520 0 3520 -3520 0 -3520 0 0 -3520z m3705 2880 c3 -5 -1 -10 -9 -10 -9
0 -16 5 -16 10 0 6 4 10 9 10 6 0 13 -4 16 -10z m535 -20 c0 -5 -4 -10 -10
-10 -5 0 -10 5 -10 10 0 6 5 10 10 10 6 0 10 -4 10 -10z m-707 -17 c-7 -2 -21
-2 -30 0 -10 3 -4 5 12 5 17 0 24 -2 18 -5z m551 -69 c9 -8 16 -18 16 -20 0
-7 -38 15 -45 26 -10 16 12 12 29 -6z m316 -114 c0 -5 -2 -10 -4 -10 -3 0 -8
5 -11 10 -3 6 -1 10 4 10 6 0 11 -4 11 -10z m240 -10 c0 -5 -4 -10 -10 -10 -5
0 -10 5 -10 10 0 6 5 10 10 10 6 0 10 -4 10 -10z m-145 -30 c3 -5 1 -10 -4
-10 -6 0 -11 5 -11 10 0 6 2 10 4 10 3 0 8 -4 11 -10z m-318 -66 c-3 -3 -12
-4 -19 -1 -8 3 -5 6 6 6 11 1 17 -2 13 -5z m794 -15 c11 -11 18 -23 15 -26 -7
-7 -46 26 -46 39 0 13 8 10 31 -13z m-514 -5 c-3 -3 -12 -4 -19 -1 -8 3 -5 6
6 6 11 1 17 -2 13 -5z m541 -89 c-9 -9 -58 9 -58 21 0 12 5 12 31 -1 17 -9 29
-18 27 -20z m160 10 c-3 -3 -9 2 -12 12 -6 14 -5 15 5 6 7 -7 10 -15 7 -18z
m-242 -116 c8 -14 -10 -11 -32 6 -18 13 -18 14 4 8 12 -3 25 -9 28 -14z m-86
-140 c0 -4 -7 -6 -15 -3 -8 4 -15 10 -15 15 0 4 7 6 15 3 8 -4 15 -10 15 -15z
m-543 -135 c-3 -3 -12 -4 -19 -1 -8 3 -5 6 6 6 11 1 17 -2 13 -5z m10 -40 c-3
-3 -12 -4 -19 -1 -8 3 -5 6 6 6 11 1 17 -2 13 -5z m760 -62 c64 -105 90 -193
118 -402 10 -69 25 -167 35 -219 22 -112 17 -128 -53 -178 -24 -18 -52 -49
-62 -69 -9 -19 -24 -43 -34 -53 -9 -9 -27 -34 -40 -55 -31 -49 -25 -116 18
-210 25 -56 34 -67 48 -61 39 16 45 10 67 -65 13 -41 31 -91 41 -110 15 -27
20 -62 23 -148 5 -140 -3 -164 -61 -180 -38 -10 -47 -9 -92 13 -30 14 -78 26
-120 30 -172 15 -285 61 -285 118 0 25 -10 16 -39 -36 -20 -36 -21 -41 -6 -89
8 -28 12 -54 10 -58 -7 -12 54 -60 76 -60 10 0 19 -6 19 -14 0 -8 7 -16 15
-20 8 -3 15 -1 15 3 0 5 -6 11 -12 14 -7 2 -10 8 -6 11 3 4 16 -2 27 -13 12
-12 30 -21 40 -21 28 0 36 -19 15 -35 -11 -7 -16 -17 -12 -21 4 -4 14 -1 22 5
12 10 15 8 18 -11 2 -13 9 -23 17 -23 8 0 16 -6 19 -12 2 -7 2 -13 0 -13 -2 0
-41 -5 -88 -11 -92 -11 -164 -4 -157 15 5 12 -50 43 -59 33 -3 -3 -36 3 -74
13 -38 10 -70 15 -72 11 -7 -15 -88 -51 -88 -38 0 16 -47 37 -66 30 -19 -7
-18 -30 3 -42 10 -5 15 -13 11 -16 -4 -4 -1 -14 7 -22 11 -10 12 -19 5 -33
-16 -30 -12 -40 19 -40 36 0 49 16 21 25 -11 3 -20 11 -20 16 0 15 31 11 95
-13 60 -21 249 -51 315 -49 19 1 51 -2 70 -5 29 -5 32 -7 17 -15 -29 -17 -8
-31 33 -24 52 9 109 39 129 68 9 14 30 44 46 67 25 36 30 52 28 93 -1 27 -5
57 -8 67 -5 14 1 19 32 22 21 3 39 4 41 3 1 -1 -9 -40 -23 -86 -27 -87 -72
-189 -98 -224 -14 -19 -16 -19 -22 -2 -4 9 -11 17 -16 17 -13 0 -11 -28 5 -53
18 -29 3 -89 -20 -80 -10 4 -17 -1 -21 -15 -6 -25 -40 -32 -73 -15 l-25 13 29
0 c43 0 25 11 -67 40 -45 15 -82 31 -82 36 0 11 -107 66 -114 58 -3 -3 8 -16
23 -29 16 -14 24 -25 18 -25 -6 0 -18 -7 -27 -17 -16 -15 -19 -15 -45 0 -38
23 -45 21 -20 -5 11 -12 20 -30 20 -39 0 -10 6 -22 14 -26 8 -4 16 -24 18 -43
2 -23 11 -41 27 -51 l23 -17 -31 -7 c-58 -12 -34 -31 44 -34 22 -1 44 -6 49
-11 6 -6 21 -10 36 -10 14 0 43 -7 65 -15 59 -21 62 -19 69 30 4 25 12 45 17
45 7 0 9 -15 5 -37 -3 -21 -8 -59 -11 -84 -5 -41 -8 -46 -29 -42 -13 3 -28 -2
-36 -12 -12 -15 -12 -19 5 -31 26 -20 34 -17 27 8 -3 14 -2 19 6 14 16 -10 15
-43 0 -49 -7 -2 -22 -1 -33 4 -11 4 -17 8 -13 8 13 1 -26 41 -39 41 -7 0 -13
-9 -13 -20 0 -24 -63 -39 -92 -21 -10 6 -39 12 -63 13 -25 0 -43 3 -41 7 2 3
-3 12 -10 19 -13 11 -14 10 -10 -12 3 -17 0 -26 -9 -26 -7 0 -12 8 -11 17 0 9
-12 24 -29 32 -16 9 -35 23 -42 31 -9 12 -16 13 -30 4 -15 -9 -24 -7 -48 12
-17 13 -36 24 -42 24 -7 0 -13 5 -13 10 0 6 7 10 15 10 8 0 15 7 15 16 0 10
-6 14 -15 10 -8 -3 -15 -1 -15 4 0 5 -7 7 -15 4 -11 -5 -13 -2 -9 10 3 9 10
16 15 16 5 0 9 4 9 10 0 5 -7 7 -15 4 -16 -7 -21 11 -6 20 5 4 8 14 6 24 -1 9
3 24 10 32 23 28 25 48 4 53 -13 4 -17 10 -12 23 5 13 3 16 -10 11 -13 -5 -17
0 -17 22 0 15 -7 41 -15 58 -8 17 -17 45 -19 62 -2 18 -11 38 -21 45 -10 7
-15 18 -11 24 4 8 2 10 -7 6 -9 -3 -22 4 -31 18 -9 12 -16 19 -16 14 0 -5 -8
-2 -17 6 -10 9 -29 19 -43 23 -23 7 -24 8 -5 16 11 4 30 5 43 2 17 -4 22 -1
22 15 0 15 -8 22 -27 24 -25 3 -26 4 -10 19 15 16 15 17 -3 22 -11 3 -20 12
-20 21 0 17 15 22 24 7 4 -5 14 -8 24 -6 9 2 25 4 35 4 14 1 16 5 7 20 -7 14
-7 22 2 27 6 4 8 3 5 -3 -4 -7 3 -10 17 -9 13 0 22 4 20 7 -5 9 22 19 52 19
13 0 24 5 24 10 0 6 3 9 8 9 24 -4 52 3 65 16 8 8 17 12 20 9 3 -3 15 -3 28 1
16 5 18 9 9 15 -7 4 -30 2 -52 -6 -21 -7 -45 -11 -53 -8 -22 9 -8 23 18 18 14
-3 10 1 -11 11 -33 16 -58 12 -46 -6 14 -24 -167 13 -187 37 -6 8 -18 14 -26
14 -8 0 -12 4 -9 9 3 5 -1 12 -10 15 -9 3 -14 15 -12 28 2 18 -1 22 -17 21
-31 -4 -115 18 -115 30 0 6 -6 18 -14 26 -7 9 -25 37 -39 62 -19 34 -22 50
-14 58 8 8 7 11 -6 11 -12 0 -17 8 -17 25 0 14 -6 28 -14 31 -11 4 -12 11 -2
36 8 24 8 32 -1 35 -7 3 -13 15 -13 27 0 24 -22 48 -52 59 -10 4 -18 10 -18
15 0 13 48 6 67 -10 12 -9 15 -9 9 0 -5 8 2 15 18 22 14 5 26 14 26 19 0 12
59 33 72 25 5 -3 59 -7 120 -8 99 -2 113 -4 122 -21 6 -11 16 -23 23 -28 7 -4
18 -13 25 -20 20 -20 115 -47 163 -47 72 0 147 19 169 42 l20 21 -58 -6 c-89
-9 -228 18 -182 36 8 3 18 2 21 -4 4 -5 11 -6 17 -3 6 4 43 8 82 10 118 5 176
15 176 30 0 19 45 18 64 -2 9 -8 16 -20 16 -25 0 -5 5 -9 10 -9 6 0 10 7 10
15 0 8 5 15 10 15 6 0 10 7 10 15 0 18 12 19 27 4 8 -8 25 0 63 30 28 23 60
41 71 41 10 0 19 5 19 10 0 6 12 10 27 10 l27 0 -21 20 c-14 13 -19 26 -16 41
6 20 3 22 -27 16 -29 -6 -31 -5 -19 9 12 15 11 16 -7 10 -19 -6 -21 -2 -21 39
0 53 -9 67 -28 41 -15 -19 -35 -14 -35 10 0 8 -3 13 -8 11 -4 -1 -18 8 -32 21
-16 14 -36 22 -61 22 -21 0 -44 3 -52 6 -8 3 -24 -4 -35 -16 -19 -20 -20 -20
-24 -2 -7 27 -77 38 -98 15 -8 -9 -9 -13 -2 -9 7 4 12 1 12 -8 0 -10 -9 -16
-25 -16 -14 0 -25 5 -25 10 0 6 -16 10 -35 10 -21 0 -35 5 -35 13 -1 7 -6 5
-14 -5 -11 -15 -18 -16 -45 -7 -24 9 -35 9 -44 0 -6 -6 -17 -11 -24 -11 -7 0
-53 -20 -103 -44 -64 -32 -90 -40 -90 -30 0 16 -16 19 -25 4 -3 -5 -12 -10
-18 -10 -7 0 -4 7 6 14 9 7 17 22 17 33 0 12 8 23 20 26 34 9 24 29 -10 22
-21 -5 -32 -3 -36 8 -3 9 -14 12 -30 9 -17 -3 -24 0 -24 12 0 26 -27 18 -32
-9 -3 -14 -2 -27 2 -30 11 -7 5 -46 -10 -55 -7 -4 -20 -6 -28 -2 -10 3 -13 1
-8 -6 10 -17 -19 -15 -33 1 -6 8 -7 17 -3 21 4 4 7 13 7 19 0 5 6 12 13 15 6
2 12 -4 12 -13 0 -29 33 -13 34 17 1 21 -4 28 -24 33 -14 3 -33 8 -44 12 -11
3 -16 1 -12 -5 8 -13 -51 -21 -63 -9 -5 5 -7 16 -4 23 3 9 -2 14 -16 14 -25 0
-29 30 -3 30 9 0 26 7 36 15 11 8 27 15 36 15 17 0 70 52 70 68 0 16 49 51 76
54 15 2 30 9 32 17 3 10 0 12 -12 8 -19 -7 -21 4 -4 21 9 9 9 15 0 24 -9 9
-12 8 -12 -5 0 -9 -4 -17 -10 -17 -17 0 -11 26 10 45 30 27 16 31 -19 5 -50
-35 -36 -5 19 41 l49 42 -19 25 c-11 14 -19 26 -18 26 2 1 12 8 23 16 19 14
19 14 6 -2 -20 -27 4 -22 35 7 14 13 27 36 28 50 0 14 6 25 13 25 7 0 16 6 20
14 11 19 106 78 194 121 40 19 80 42 88 49 11 10 40 15 89 15 40 0 77 3 83 6
5 4 20 0 33 -9 13 -8 36 -13 52 -11 16 1 75 6 132 10 56 4 102 11 102 16 0 4
16 11 35 15 19 3 35 9 35 13 0 4 18 8 39 9 37 2 41 -1 68 -46z m-734 -9 c-7
-2 -19 -2 -25 0 -7 3 -2 5 12 5 14 0 19 -2 13 -5z m-323 -333 c0 -5 -9 -10
-20 -10 -11 0 -20 5 -20 10 0 6 9 10 20 10 11 0 20 -4 20 -10z m535 -420 c3
-6 -1 -7 -9 -4 -18 7 -21 14 -7 14 6 0 13 -4 16 -10z m-695 -10 c0 -5 -2 -10
-4 -10 -3 0 -8 5 -11 10 -3 6 -1 10 4 10 6 0 11 -4 11 -10z m810 -20 c0 -5 -2
-10 -4 -10 -3 0 -8 5 -11 10 -3 6 -1 10 4 10 6 0 11 -4 11 -10z m-280 -10 c0
-5 -4 -10 -10 -10 -5 0 -10 5 -10 10 0 6 5 10 10 10 6 0 10 -4 10 -10z m170 0
c0 -5 -2 -10 -4 -10 -3 0 -8 5 -11 10 -3 6 -1 10 4 10 6 0 11 -4 11 -10z
m-710 -74 c0 -3 -4 -8 -10 -11 -5 -3 -10 -1 -10 4 0 6 5 11 10 11 6 0 10 -2
10 -4z m117 -2 c-3 -3 -12 -4 -19 -1 -8 3 -5 6 6 6 11 1 17 -2 13 -5z m-135
-61 c15 -12 29 -19 32 -16 3 4 6 -1 6 -10 0 -20 -30 -37 -64 -37 -19 0 -26 -5
-26 -20 0 -23 -6 -24 -40 -5 -24 14 -24 14 -3 15 18 0 22 6 21 31 -1 18 -7 33
-17 37 -16 6 -40 32 -41 44 0 14 75 13 91 -2 8 -8 27 -25 41 -37z m-842 22
c11 -13 8 -14 -21 -9 -47 9 -60 24 -22 24 17 0 36 -7 43 -15z m670 -105 c0 -5
-2 -10 -4 -10 -3 0 -8 5 -11 10 -3 6 -1 10 4 10 6 0 11 -4 11 -10z m190 -15
c0 -30 -3 -30 -30 -8 -27 23 -25 33 5 33 20 0 25 -5 25 -25z m-62 -35 c1 -4
22 -6 46 -4 24 2 55 0 68 -6 19 -8 16 -9 -22 -7 -32 1 -44 -2 -42 -10 1 -7 -3
-13 -9 -13 -7 0 -18 -8 -26 -17 -10 -13 -16 -15 -19 -5 -3 6 -10 10 -15 6 -5
-3 -14 -2 -20 2 -8 4 -4 13 12 25 l24 17 -28 7 c-15 4 -27 11 -27 16 0 10 53
0 58 -11z m663 -27 c17 -3 35 0 44 7 9 7 18 10 22 6 22 -22 -85 -48 -111 -27
-9 8 -16 8 -20 2 -4 -6 -13 -8 -22 -4 -25 9 5 35 34 28 13 -3 37 -9 53 -12z
m-1441 -17 c0 -3 -4 -8 -10 -11 -5 -3 -10 -1 -10 4 0 6 5 11 10 11 6 0 10 -2
10 -4z m2123 -6 c-4 -4 -25 -11 -45 -14 -28 -5 -38 -3 -38 6 0 9 16 13 46 14
25 1 42 -2 37 -6z m-1276 -16 c-3 -3 -12 -4 -19 -1 -8 3 -5 6 6 6 11 1 17 -2
13 -5z m-1028 -36 c0 -28 -2 -30 -9 -13 -12 28 -12 45 0 45 6 0 10 -15 9 -32z
m130 -39 c-17 -62 -5 -109 42 -167 47 -60 35 -81 -18 -31 -42 41 -59 71 -68
125 -7 46 9 120 28 127 23 8 28 -10 16 -54z m2160 33 c11 -11 9 -13 -15 -10
-15 2 -29 8 -31 13 -5 16 32 13 46 -3z m-2105 -138 c9 -23 7 -46 -3 -40 -11 7
-21 56 -11 56 4 0 11 -7 14 -16z m107 -128 c5 -11 17 -32 26 -46 l18 -24 -33
19 c-31 19 -66 68 -55 79 9 9 35 -7 44 -28z m1195 -287 c11 -18 -13 -32 -43
-24 l-28 7 25 13 c31 17 37 18 46 4z m354 -485 c0 -2 -7 -4 -15 -4 -8 0 -15 4
-15 10 0 5 7 7 15 4 8 -4 15 -8 15 -10z m-390 -24 c0 -5 -8 -10 -17 -10 -15 0
-16 2 -3 10 19 12 20 12 20 0z m-4 -97 c-10 -10 -19 5 -10 18 6 11 8 11 12 0
2 -7 1 -15 -2 -18z m-41 -3 c3 -5 -1 -10 -10 -10 -9 0 -13 5 -10 10 3 6 8 10
10 10 2 0 7 -4 10 -10z m135 -185 c-7 -8 -17 -12 -22 -9 -6 4 -5 10 3 15 22
14 33 10 19 -6z m-645 -840 c44 -8 86 -14 93 -15 6 0 12 -7 12 -15 0 -8 7 -15
16 -15 8 0 13 4 9 9 -3 5 -1 12 5 16 12 7 59 -25 60 -42 0 -22 21 -25 27 -4 5
21 14 26 26 14 9 -9 -33 -53 -50 -53 -7 0 -14 -6 -14 -12 -10 -99 -11 -147 -2
-245 7 -73 6 -93 -4 -93 -20 0 -15 -18 7 -30 36 -19 23 -33 -22 -26 -24 4 -77
11 -118 17 -102 13 -112 17 -105 40 4 11 2 26 -5 34 -6 7 -15 26 -20 42 -5 15
-20 60 -34 98 -14 39 -26 78 -26 89 0 30 -53 104 -80 114 -23 8 -20 10 32 25
31 10 66 17 78 17 11 0 18 5 15 10 -3 6 -24 10 -46 10 -21 0 -39 4 -39 9 0 24
73 26 185 6z m-185 -1045 c0 -5 -4 -10 -10 -10 -5 0 -10 5 -10 10 0 6 5 10 10
10 6 0 10 -4 10 -10z m898 -482 c-6 -18 -28 -21 -28 -4 0 9 7 16 16 16 9 0 14
-5 12 -12z"/>
<path d="M4080 4680 c0 -6 -4 -8 -10 -5 -5 3 -10 -1 -10 -9 0 -11 6 -13 19 -8
22 8 28 25 12 30 -6 2 -11 -1 -11 -8z"/>
<path d="M4342 3667 c-6 -7 -7 -18 -3 -25 5 -9 11 -5 19 13 12 26 2 34 -16 12z"/>
<path d="M5078 3632 c-21 -4 -24 -42 -4 -42 7 0 16 10 19 22 7 26 7 26 -15 20z"/>
<path d="M4310 3309 c0 -5 5 -7 10 -4 6 3 10 8 10 11 0 2 -4 4 -10 4 -5 0 -10
-5 -10 -11z"/>
<path d="M4346 3268 c8 -27 12 -33 19 -27 7 8 -7 49 -17 49 -5 0 -6 -10 -2
-22z"/>
<path d="M4400 3170 c0 -5 7 -10 15 -10 8 0 15 5 15 10 0 6 -7 10 -15 10 -8 0
-15 -4 -15 -10z"/>
<path d="M4485 3170 c-3 -5 1 -10 9 -10 10 0 13 -6 10 -15 -7 -17 26 -20 61
-6 18 7 15 10 -19 25 -45 19 -53 20 -61 6z"/>
<path d="M4320 3138 c0 -6 3 -8 7 -5 3 4 12 2 20 -4 10 -9 13 -8 13 5 0 9 -8
16 -20 16 -11 0 -20 -5 -20 -12z"/>
<path d="M4533 3105 c-9 -24 1 -27 20 -5 14 17 15 20 2 20 -9 0 -18 -7 -22
-15z"/>
<path d="M4510 3060 c0 -5 5 -10 10 -10 6 0 10 5 10 10 0 6 -4 10 -10 10 -5 0
-10 -4 -10 -10z"/>
<path d="M4855 2980 c-3 -5 -2 -10 4 -10 5 0 13 5 16 10 3 6 2 10 -4 10 -5 0
-13 -4 -16 -10z"/>
<path d="M4600 2910 c0 -5 7 -10 15 -10 8 0 15 5 15 10 0 6 -7 10 -15 10 -8 0
-15 -4 -15 -10z"/>
</g>
</svg>
